<?xml version="1.0" encoding="UTF-8"?>
<svg id="Capa_1" data-name="Capa 1" xmlns="http://www.w3.org/2000/svg" viewBox="0 0 300 300">
  <defs>
    <style>
      .cls-1 {
        fill: #fff;
      }

      .cls-2 {
        fill: #b0578d;
        stroke: #fff;
        stroke-miterlimit: 10;
        stroke-width: 3px;
      }
    </style>
  </defs>
  <circle class="cls-2" cx="150" cy="150" r="148.21"/>
  <g>
    <path class="cls-1" d="M208.22,130.46c-31.67,31.81-63.6,63.17-95.41,94.86l-39.6-39.02,114.88-115.32,39.32,39.42-.43.95c-6.56,6.06-12.47,12.8-18.76,19.11Z"/>
    <path class="cls-1" d="M239.3,62.12c6.76,6.98,12.43,12.26,10.08,23.01-1.33,6.08-10.78,15.85-15.65,19.94-.67.56-2.25,1.99-3.03,2l-39.31-38.93c-.05-.31,2.26-3.22,2.7-3.71,3.41-3.73,12.46-12.58,16.82-14.26,12.41-4.79,20.55,3.85,28.4,11.95Z"/>
    <polygon class="cls-1" points="69.02 189.3 70.52 189.55 108.87 227.4 109.62 228.65 51.2 249.44 50.55 248.31 69.02 189.3"/>
  </g>
</svg>