<?xml version="1.0" encoding="UTF-8"?>
<svg id="Capa_1" data-name="Capa 1" xmlns="http://www.w3.org/2000/svg" viewBox="0 0 2039.45 921.93">
  <defs>
    <style>
      .cls-1 {
        fill: #fff;
      }

      .cls-2, .cls-3 {
        fill: #b0578d;
      }

      .cls-3 {
        stroke: #fff;
        stroke-miterlimit: 10;
        stroke-width: 3px;
      }
    </style>
  </defs>
  <line class="cls-3" x1="-292.69" y1="19.86" x2="66.48" y2="19.86"/>
  <path class="cls-1" d="M1751.76,502.21c84.28,27.44,167.98,65.1,242.61,116.01,8.42,5.74,41.14,27.38,44.11,35.04,6.58,17-22.23,19.53-32.5,24.82-17.99,9.26-40.96,31.45-54.06,47.82-5.95,7.44-20.24,24.97-18.65,34.15,13.52,38.91,25.62,81.99,30.19,123.5,1.29,11.69,7.75,38.79-7.9,38.38-7.93-.21-21.32-17.4-29.32-23.44-95.35-71.99-291.34-90.22-406.39-118.12-22.67-5.49-48.31-10.64-64.34-30.65-17.82-22.24-28.48-38.57-32.97-68.88-4.55-30.69-.6-59.4.52-89.64l-3.73-1.86c-130.23-13.77-260.85-18.78-391.45-22.77l-19.89.92-181.07,6.04c-70.01,6.49-141.18,9.06-210.3,19.64,2.2,36.27,6.18,72.63-3.93,108.51-8.11,28.76-36.21,60.88-62.5,70.26-55.69,19.87-129.37,26.67-188.32,39.68-72.47,16-188.18,41.36-248.42,86.84-9.27,7-23.35,27.51-33.81,22.36-9.38-6.87-4.65-24.14-3.41-35.32,2.88-26.12,8.99-54.64,15.57-79.97,4.5-17.35,12.43-35.07,14.6-52.4-18.15-28.14-44.67-61.2-73.83-75.81-11.9-5.96-29.48-4.46-32.56-19.71.01-8.28,17.02-19.3,23.19-24.01,58.46-44.57,135.16-82.96,202.21-109.62,7.52-2.99,52.87-17.07,54.48-19.67,1.49-2.42.93-5.74.39-8.46l-39.32-180.95,4.62-12.32c185.3-56.53,378.19-84.14,570.44-95.25,294.16-17.01,591.81,5.51,879.93,73.86,20.79,4.93,58.55,11.4,76.6,19.24,5.88,2.55,9.23,6.84,9.02,14.03l-29.79,187.72ZM1757.18,320.21c-65.73-14.14-131.02-30.54-197.12-42.94-313.78-58.86-641.47-68.46-957.55-26.07-113.93,15.28-226.92,39.04-338.14,69.01l66.12,293.08c340.41-67.71,689.39-86.19,1034.46-53.61,116.08,10.96,231.72,29.11,345.89,53.56l46.33-293.03ZM2001.77,650.74c-28.56-17.02-55.99-36.53-85.11-52.52-53.84-29.56-110.98-52.73-168.51-72.2l-17.25,106.86c-10.83,36.15-71.43,53.84-101.97,60.79-50.67,11.53-103.41,14.08-154.91,18.79-9.51,5.99-4.71,18.72,1.93,25.37,13.5,13.53,48.93,18.68,67.42,22.77,115.17,25.52,247.26,40.3,354.54,93.62,14.53,7.22,27.75,16.93,42.25,24.08-4.87-34.05-13.48-67.38-23.51-99.97-2.28-7.42-9.58-20.32-8.4-26.74,1.03-5.59,11.17-20.19,14.86-25.51,19.61-28.29,47.85-56.52,77.54-71.28l1.11-4.06ZM99.53,878.3c14.16-6.82,26.91-16.34,41.01-23.46,106.01-53.49,239.93-68.66,354.26-93.93,17.7-3.91,58.47-10.3,70.3-24.14,5.99-7.01,9.75-22.27-.95-24.64-21.87-4.85-52.53-3.31-76-6.03-43.74-5.07-161.79-20.34-178.84-71.81l-21.74-102.91-3.78-3.1c-84.13,29.23-165.81,67.63-239.85,120.15-1.81,1.29-3.85,2.07-5.99,2.31-3.02,3.52,10.46,8.36,13.23,10.25,24.61,16.84,47.86,39.82,65.43,65.08,3.66,5.27,13.86,20,14.86,25.52,1.26,6.94-7.71,24.47-10.22,32.67-9.36,30.63-17.34,61.99-21.7,94.03ZM1701.03,634.89l-255.44-41.58c-1.61,31.31-6.03,62.4.5,93.47.46,2.18,4.33,17.28,6.71,15.39,9.55-19.39,34.84-14.25,51.65-15.85,51.73-4.94,146.02-12.34,189.18-42.72,2.55-1.8,8.3-4.71,7.41-8.7ZM594.1,595.29c-85.53,11.08-171.37,22.7-255.43,42.55,44.17,31.17,103.17,38.53,154.9,44.53,22.28,2.58,60.61.68,79.83,7.79,6.63,2.45,10.57,8.34,17.08,10.02,9.47-34.73,6.59-69.38,3.63-104.9Z"/>
  <path class="cls-2" d="M1757.18,320.21l-46.33,293.03c-114.17-24.45-229.82-42.6-345.89-53.56-345.07-32.58-694.05-14.1-1034.46,53.61l-66.12-293.08c111.23-29.97,224.21-53.73,338.14-69.01,316.07-42.39,643.77-32.79,957.55,26.07,66.1,12.4,131.39,28.8,197.12,42.94Z"/>
  <path class="cls-2" d="M2001.77,650.74l-1.11,4.06c-29.69,14.76-57.93,42.99-77.54,71.28-3.69,5.32-13.84,19.92-14.86,25.51-1.18,6.42,6.12,19.32,8.4,26.74,10.03,32.59,18.64,65.92,23.51,99.97-14.51-7.16-27.72-16.86-42.25-24.08-107.28-53.32-239.36-68.1-354.54-93.62-18.48-4.1-53.92-9.25-67.42-22.77-6.64-6.65-11.45-19.38-1.93-25.37,51.5-4.71,104.24-7.26,154.91-18.79,30.54-6.95,91.14-24.64,101.97-60.79l17.25-106.86c57.53,19.48,114.67,42.64,168.51,72.2,29.11,15.99,56.55,35.5,85.11,52.52Z"/>
  <path class="cls-2" d="M99.53,878.3c4.36-32.04,12.34-63.4,21.7-94.03,2.51-8.2,11.48-25.74,10.22-32.67-1-5.52-11.2-20.25-14.86-25.52-17.57-25.27-40.82-48.24-65.43-65.08-2.77-1.89-16.25-6.73-13.23-10.25,2.15-.24,4.18-1.02,5.99-2.31,74.05-52.52,155.73-90.92,239.85-120.15l3.78,3.1,21.74,102.91c17.05,51.48,135.1,66.74,178.84,71.81,23.47,2.72,54.13,1.18,76,6.03,10.7,2.37,6.94,17.63.95,24.64-11.83,13.84-52.6,20.23-70.3,24.14-114.33,25.27-248.25,40.43-354.26,93.93-14.1,7.12-26.85,16.64-41.01,23.46Z"/>
  <path class="cls-2" d="M1701.03,634.89c.89,4-4.86,6.91-7.41,8.7-43.16,30.38-137.45,37.78-189.18,42.72-16.81,1.6-42.1-3.54-51.65,15.85-2.38,1.89-6.25-13.21-6.71-15.39-6.53-31.07-2.11-62.16-.5-93.47l255.44,41.58Z"/>
  <path class="cls-2" d="M594.1,595.29c2.96,35.52,5.83,70.18-3.63,104.9-6.51-1.68-10.45-7.57-17.08-10.02-19.22-7.11-57.55-5.21-79.83-7.79-51.73-6-110.73-13.36-154.9-44.53,84.06-19.85,169.9-31.47,255.43-42.55Z"/>
</svg>